<svg width="300" height="150" viewBox="0 0 300 150" fill="none" xmlns="http://www.w3.org/2000/svg">
<g clip-path="url(#clip0)">
<rect width="300" height="150" fill="#F9F9F9"/>
<path d="M263.5 -13.5C263.5 45.546 210.273 93.5 144.5 93.5C78.727 93.5 25.5 45.546 25.5 -13.5C25.5 -72.546 78.727 -120.5 144.5 -120.5C210.273 -120.5 263.5 -72.546 263.5 -13.5Z" stroke="black"/>
<circle cx="136" cy="40" r="8.5" stroke="black"/>
<rect x="111" y="44.1518" width="17.0051" height="29.8776" transform="rotate(-63.0006 111 44.1518)" fill="#F9F9F9"/>
<path d="M146.5 53C146.5 56.604 143.886 59.9698 139.433 62.4632C134.997 64.9476 128.834 66.5 122 66.5C115.166 66.5 109.003 64.9476 104.567 62.4632C100.114 59.9698 97.5 56.604 97.5 53C97.5 49.396 100.114 46.0302 104.567 43.5368C109.003 41.0524 115.166 39.5 122 39.5C128.834 39.5 134.997 41.0524 139.433 43.5368C143.886 46.0302 146.5 49.396 146.5 53Z" stroke="black"/>
<rect x="146" y="27.4466" width="14.7737" height="29.813" transform="rotate(-45 146 27.4466)" fill="#F9F9F9"/>
<rect x="88" y="34.2233" width="28.6001" height="43.5248" transform="rotate(-45 88 34.2233)" fill="#F9F9F9"/>
<rect x="125" y="41.5912" width="7.22898" height="12.57" transform="rotate(-65.7524 125 41.5912)" fill="#F9F9F9"/>
<circle cx="118" cy="55" r="21.5" stroke="black"/>
<rect x="133.681" y="65.6813" width="9.65439" height="1.21572" transform="rotate(-24.1097 133.681 65.6813)" fill="#F9F9F9"/>
<rect x="135.312" y="66.3954" width="1.68861" height="2.2736" transform="rotate(-75 135.312 66.3954)" fill="#F9F9F9"/>
<rect x="136.699" y="61.4532" width="1.80543" height="1.63437" transform="rotate(-26.5091 136.699 61.4532)" fill="#F9F9F9"/>
<rect x="137" y="61.3702" width="1.4186" height="2.10645" transform="rotate(-75 137 61.3702)" fill="#F9F9F9"/>
<path d="M67.5 -32.5C67.5 20.0607 59.4471 67.623 46.444 102.027C39.9417 119.231 32.2114 133.119 23.6528 142.696C15.0939 152.275 5.74834 157.5 -4 157.5C-13.7483 157.5 -23.0939 152.275 -31.6528 142.696C-40.2114 133.119 -47.9418 119.231 -54.444 102.027C-67.4471 67.623 -75.5 20.0607 -75.5 -32.5C-75.5 -85.0607 -67.4471 -132.623 -54.444 -167.027C-47.9418 -184.231 -40.2114 -198.119 -31.6528 -207.696C-23.0939 -217.275 -13.7483 -222.5 -4 -222.5C5.74834 -222.5 15.0939 -217.275 23.6528 -207.696C32.2114 -198.119 39.9417 -184.231 46.444 -167.027C59.4471 -132.623 67.5 -85.0607 67.5 -32.5Z" stroke="black"/>
<rect x="24" y="-10" width="25" height="94" fill="#F9F9F9"/>
<rect x="76.2001" y="46.6387" width="19.2881" height="61.0391" transform="rotate(-45 76.2001 46.6387)" fill="#F9F9F9"/>
<rect x="118" y="59.6284" width="6.10851" height="9.16485" transform="rotate(-5.90462 118 59.6284)" fill="#F9F9F9"/>
<rect x="14" y="57.6407" width="48.9894" height="61.0391" transform="rotate(-45 14 57.6407)" fill="#F9F9F9"/>
<rect x="67" y="83.7978" width="19.2881" height="61.0391" transform="rotate(-77.0535 67 83.7978)" fill="#F9F9F9"/>
<path d="M44.7276 94.0001L62.4053 111.678L11.6777 162.405L-5.99999 144.728L44.7276 94.0001Z" fill="#F9F9F9"/>
<circle cx="67.5" cy="95.5" r="55" stroke="black"/>
<rect x="113" y="69.6877" width="7" height="11" transform="rotate(-22.5786 113 69.6877)" fill="#F9F9F9"/>
<rect x="17.9733" y="49" width="123.093" height="91.8861" transform="rotate(45 17.9733 49)" fill="#F9F9F9"/>
<line x1="126" y1="72.5" x2="61" y2="72.5" stroke="black"/>
<line x1="121" y1="75.5" x2="56" y2="75.5" stroke="black"/>
</g>
<defs>
<clipPath id="clip0">
<rect width="300" height="150" fill="white"/>
</clipPath>
</defs>
</svg>
