<svg width="300" height="150" viewBox="0 0 300 150" fill="none" xmlns="http://www.w3.org/2000/svg">
<g clip-path="url(#clip0)">
<rect width="300" height="150" fill="#F9F9F9"/>
<rect x="30.5" y="14.5" width="240" height="121" rx="9.5" stroke="black"/>
<rect x="249.5" y="19.5" width="14" height="14" stroke="black"/>
<rect x="37.5" y="112.5" width="14" height="14" stroke="black"/>
<rect x="55.5" y="121.5" width="206" height="5" rx="2.5" stroke="black"/>
<rect x="55.5" y="114.5" width="27" height="4" rx="2" stroke="black"/>
<line x1="87" y1="116.5" x2="169" y2="116.5" stroke="black"/>
<line x1="74.3536" y1="33.6464" x2="133.354" y2="92.6464" stroke="black"/>
<line x1="101.354" y1="33.6464" x2="137.354" y2="69.6464" stroke="black"/>
<line opacity="0.3" x1="298.354" y1="141.646" x2="357.354" y2="200.646" stroke="black" stroke-opacity="0.5"/>
<rect x="20" y="34" width="17" height="23" fill="#F9F9F9"/>
<rect x="237" y="27" width="17" height="23" fill="#F9F9F9"/>
<rect x="55" y="78" width="17" height="23" fill="#F9F9F9"/>
<rect x="56" y="131" width="17" height="23" fill="#F9F9F9"/>
<rect x="20" y="34" width="17" height="23" fill="#F9F9F9"/>
<line x1="72.3536" y1="58.6464" x2="103.354" y2="89.6464" stroke="black"/>
<line x1="174.354" y1="33.6464" x2="233.354" y2="92.6464" stroke="black"/>
<line x1="201.354" y1="33.6464" x2="237.354" y2="69.6464" stroke="black"/>
<line x1="172.354" y1="58.6464" x2="203.354" y2="89.6464" stroke="black"/>
<rect x="95" y="47" width="15" height="23" fill="#F9F9F9"/>
<rect x="195" y="47" width="15" height="23" fill="#F9F9F9"/>
</g>
<defs>
<clipPath id="clip0">
<rect width="300" height="150" fill="white"/>
</clipPath>
</defs>
</svg>
