<svg width="300" height="150" viewBox="0 0 300 150" fill="none" xmlns="http://www.w3.org/2000/svg">
<g clip-path="url(#clip0)">
<rect width="300" height="150" fill="#F9F9F9"/>
<circle cx="72" cy="76" r="53.5" stroke="black"/>
<rect x="25" y="19.8575" width="22.2248" height="29.7658" transform="rotate(-32.2438 25 19.8575)" fill="#F9F9F9"/>
<rect x="90" y="101.857" width="22.2248" height="29.7658" transform="rotate(-32.2438 90 101.857)" fill="#F9F9F9"/>
<circle cx="132" cy="22" r="15.5" stroke="black"/>
<path d="M211.5 499C211.5 653.28 170.499 792.932 104.237 893.999C37.9709 995.069 -53.5169 1057.5 -154.5 1057.5C-255.483 1057.5 -346.971 995.069 -413.236 893.999C-479.499 792.932 -520.5 653.28 -520.5 499C-520.5 344.72 -479.499 205.068 -413.236 104.001C-346.971 2.93057 -255.483 -59.5 -154.5 -59.5C-53.5169 -59.5 37.9709 2.93057 104.237 104.001C170.499 205.068 211.5 344.72 211.5 499Z" stroke="black"/>
<rect x="53" y="74.1426" width="49" height="29.7658" transform="rotate(-32.2438 53 74.1426)" fill="#F9F9F9"/>
<rect x="29" y="70" width="8.16055" height="10.9295" fill="#F9F9F9"/>
<rect x="107" y="69" width="2" height="11" fill="#F9F9F9"/>
<rect x="29" y="70" width="8.16055" height="10.9295" fill="#F9F9F9"/>
<line x1="230.354" y1="-5.35355" x2="353.354" y2="117.646" stroke="black"/>
<line x1="230.354" y1="-5.35355" x2="353.354" y2="117.646" stroke="black"/>
<line x1="246.354" y1="-23.3536" x2="369.354" y2="99.6464" stroke="black"/>
<line x1="169.354" y1="-3.35355" x2="332.354" y2="159.646" stroke="black"/>
<line x1="185.354" y1="-21.3536" x2="351.354" y2="144.646" stroke="black"/>
<rect x="245" y="17.8118" width="13.876" height="47.5636" transform="rotate(-45 245 17.8118)" fill="#F9F9F9"/>
<rect x="235" y="90.2132" width="30" height="74.869" transform="rotate(-45 235 90.2132)" fill="#F9F9F9"/>
<rect x="272" y="27.2132" width="30" height="42.4913" transform="rotate(-45 272 27.2132)" fill="#F9F9F9"/>
<rect x="57.5" y="67.5" width="9" height="14" stroke="black"/>
<rect x="77.5" y="67.5" width="9" height="14" stroke="black"/>
<rect x="100.5" y="67.5" width="9" height="14" stroke="black"/>
<rect x="36.5" y="67.5" width="9" height="14" stroke="black"/>
<rect x="38" y="67" width="10" height="12" fill="#F9F9F9"/>
<rect x="82" y="76" width="6" height="12" fill="#F9F9F9"/>
<rect x="82" y="70" width="6" height="3" fill="#F9F9F9"/>
<rect x="97" y="72" width="6" height="11" fill="#F9F9F9"/>
<rect x="108" y="72" width="6" height="11" fill="#F9F9F9"/>
<rect x="53" y="66" width="6" height="17" fill="#F9F9F9"/>
<rect x="65" y="66" width="6" height="17" fill="#F9F9F9"/>
</g>
<defs>
<clipPath id="clip0">
<rect width="300" height="150" fill="white"/>
</clipPath>
</defs>
</svg>
