<svg width="228" height="130" viewBox="0 0 228 130" fill="none" xmlns="http://www.w3.org/2000/svg">
<rect x="28" y="25" width="181" height="71" fill="#61A5E3"/>
<rect x="21" y="34" width="178" height="71" fill="white"/>
<rect x="18" y="38" width="33" height="32" fill="white"/>
<rect x="18.5" y="38.5" width="32" height="31" stroke="black" stroke-opacity="0.75"/>
<rect x="54" y="38" width="33" height="32" fill="white"/>
<rect x="54.5" y="38.5" width="32" height="31" stroke="black" stroke-opacity="0.75"/>
<rect x="90" y="38" width="33" height="32" fill="white"/>
<rect x="90.5" y="38.5" width="32" height="31" stroke="black" stroke-opacity="0.75"/>
<rect x="126" y="38" width="33" height="32" fill="white"/>
<rect x="126.5" y="38.5" width="32" height="31" stroke="black" stroke-opacity="0.75"/>
<rect x="162" y="38" width="33" height="32" fill="white"/>
<rect x="162.5" y="38.5" width="32" height="31" stroke="black" stroke-opacity="0.75"/>
<rect x="18" y="73" width="33" height="32" fill="white"/>
<rect x="18.5" y="73.5" width="32" height="31" stroke="black" stroke-opacity="0.75"/>
<rect x="54" y="73" width="33" height="32" fill="white"/>
<rect x="54.5" y="73.5" width="32" height="31" stroke="black" stroke-opacity="0.75"/>
<rect x="90" y="73" width="33" height="32" fill="white"/>
<rect x="90.5" y="73.5" width="32" height="31" stroke="black" stroke-opacity="0.75"/>
<rect x="126" y="73" width="33" height="32" fill="white"/>
<rect x="126.5" y="73.5" width="32" height="31" stroke="black" stroke-opacity="0.75"/>
<rect x="162" y="73" width="33" height="32" fill="white"/>
<rect x="162.5" y="73.5" width="32" height="31" stroke="black" stroke-opacity="0.75"/>
</svg>
