<svg width="228" height="130" viewBox="0 0 228 130" fill="none" xmlns="http://www.w3.org/2000/svg">
<rect x="49" y="13" width="149" height="83" fill="#61A5E3"/>
<rect x="41" y="23" width="99" height="13" fill="white"/>
<path d="M38 23H188V117H38V23Z" fill="white"/>
<rect x="34" y="27" width="150" height="83" fill="white"/>
<rect x="34.5" y="27.5" width="149" height="82" stroke="black" stroke-opacity="0.75"/>
<rect x="84" y="27" width="49" height="8" fill="white"/>
<rect x="86" y="27" width="45" height="8" fill="white"/>
<rect x="86.5" y="27.5" width="44" height="7" stroke="black" stroke-opacity="0.75"/>
<rect x="44" y="42" width="29" height="2" rx="1" fill="black" fill-opacity="0.75"/>
<rect x="79" y="42" width="28" height="2" rx="1" fill="black" fill-opacity="0.75"/>
<rect x="95" y="30" width="27" height="2" rx="1" fill="black" fill-opacity="0.75"/>
<rect x="113" y="42" width="28" height="2" rx="1" fill="black" fill-opacity="0.75"/>
<rect x="147" y="42" width="29" height="2" rx="1" fill="black" fill-opacity="0.75"/>
<rect x="47" y="48" width="22" height="1" rx="0.5" fill="#C4C4C4"/>
<rect x="51" y="51" width="14" height="1" rx="0.5" fill="#C4C4C4"/>
<rect x="47" y="54" width="22" height="1" rx="0.5" fill="#C4C4C4"/>
<rect x="82" y="48" width="22" height="1" rx="0.5" fill="#C4C4C4"/>
<rect x="86" y="51" width="14" height="1" rx="0.5" fill="#C4C4C4"/>
<rect x="82" y="54" width="22" height="1" rx="0.5" fill="#C4C4C4"/>
<rect x="120" y="48" width="14" height="1" rx="0.5" fill="#C4C4C4"/>
<rect x="116" y="51" width="22" height="1" rx="0.5" fill="#C4C4C4"/>
<rect x="152" y="48" width="20" height="1" rx="0.5" fill="#C4C4C4"/>
<rect x="152" y="51" width="20" height="1" rx="0.5" fill="#C4C4C4"/>
<rect x="152" y="54" width="20" height="1" rx="0.5" fill="#C4C4C4"/>
<rect x="149" y="57" width="26" height="1" rx="0.5" fill="#C4C4C4"/>
<circle cx="58" cy="89" r="15" fill="white"/>
<circle cx="58" cy="89" r="14.5" stroke="black" stroke-opacity="0.75"/>
<rect x="92" y="72" width="83" height="34" rx="6" fill="white"/>
<rect x="92.5" y="72.5" width="82" height="33" rx="5.5" stroke="black" stroke-opacity="0.75"/>
<circle cx="109" cy="88" r="15" fill="white"/>
<circle cx="109" cy="88" r="14.5" stroke="black" stroke-opacity="0.75"/>
<rect x="47" y="70" width="22" height="11" fill="white"/>
<rect x="49" y="71" width="18" height="8" fill="white"/>
<rect x="49.5" y="71.5" width="17" height="7" stroke="black" stroke-opacity="0.75"/>
<rect x="98" y="70" width="22" height="10" fill="white"/>
<rect x="100" y="71" width="18" height="8" fill="white"/>
<rect x="100.5" y="71.5" width="17" height="7" stroke="black" stroke-opacity="0.75"/>
<rect x="129" y="70" width="42" height="12" fill="white"/>
<rect x="131" y="71" width="38" height="10" fill="white"/>
<rect x="131.5" y="71.5" width="37" height="9" stroke="black" stroke-opacity="0.75"/>
<rect x="53" y="74" width="10" height="2" rx="1" fill="black" fill-opacity="0.75"/>
<path d="M51 84.5C51 84.2239 51.2239 84 51.5 84H64.5C64.7761 84 65 84.2239 65 84.5V84.5C65 84.7761 64.7761 85 64.5 85H51.5C51.2239 85 51 84.7761 51 84.5V84.5Z" fill="#C4C4C4"/>
<rect x="51" y="90" width="14" height="1" rx="0.5" fill="#C4C4C4"/>
<rect x="51" y="93" width="14" height="1" rx="0.5" fill="#C4C4C4"/>
<rect x="51" y="87" width="14" height="1" rx="0.5" fill="#C4C4C4"/>
<rect x="104" y="82" width="10" height="1" rx="0.5" fill="#C4C4C4"/>
<rect x="105" y="97" width="8" height="1" rx="0.5" fill="#C4C4C4"/>
<rect x="105" y="97" width="8" height="1" rx="0.5" fill="#C4C4C4"/>
<rect x="105" y="97" width="8" height="1" rx="0.5" fill="#C4C4C4"/>
<rect x="102" y="86" width="14" height="1" rx="0.5" fill="#C4C4C4"/>
<rect x="102" y="86" width="14" height="1" rx="0.5" fill="#C4C4C4"/>
<rect x="102" y="86" width="14" height="1" rx="0.5" fill="#C4C4C4"/>
<rect x="102" y="84" width="14" height="1" rx="0.5" fill="#C4C4C4"/>
<rect x="102" y="84" width="14" height="1" rx="0.5" fill="#C4C4C4"/>
<rect x="102" y="84" width="14" height="1" rx="0.5" fill="#C4C4C4"/>
<rect x="100" y="95" width="18" height="1" rx="0.5" fill="#C4C4C4"/>
<rect x="100" y="95" width="18" height="1" rx="0.5" fill="#C4C4C4"/>
<rect x="100" y="95" width="18" height="1" rx="0.5" fill="#C4C4C4"/>
<path d="M134 89.5C134 89.2239 134.224 89 134.5 89H163.5C163.776 89 164 89.2239 164 89.5V89.5C164 89.7761 163.776 90 163.5 90H134.5C134.224 90 134 89.7761 134 89.5V89.5Z" fill="#C4C4C4"/>
<path d="M134 89.5C134 89.2239 134.224 89 134.5 89H163.5C163.776 89 164 89.2239 164 89.5V89.5C164 89.7761 163.776 90 163.5 90H134.5C134.224 90 134 89.7761 134 89.5V89.5Z" fill="#C4C4C4"/>
<path d="M134 89.5C134 89.2239 134.224 89 134.5 89H163.5C163.776 89 164 89.2239 164 89.5V89.5C164 89.7761 163.776 90 163.5 90H134.5C134.224 90 134 89.7761 134 89.5V89.5Z" fill="#C4C4C4"/>
<rect x="102" y="88" width="14" height="1" rx="0.5" fill="#C4C4C4"/>
<rect x="132" y="87" width="36" height="1" rx="0.5" fill="#C4C4C4"/>
<rect x="132" y="95" width="36" height="1" rx="0.5" fill="#C4C4C4"/>
<path d="M138 97.5C138 97.2239 138.224 97 138.5 97H161.5C161.776 97 162 97.2239 162 97.5V97.5C162 97.7761 161.776 98 161.5 98H138.5C138.224 98 138 97.7761 138 97.5V97.5Z" fill="#C4C4C4"/>
<rect x="104" y="93" width="10" height="1" rx="0.5" fill="#C4C4C4"/>
<rect x="140" y="77" width="20" height="1" rx="0.5" fill="black" fill-opacity="0.75"/>
<path d="M103 75C103 74.4477 103.448 74 104 74H114C114.552 74 115 74.4477 115 75V75C115 75.5523 114.552 76 114 76H104C103.448 76 103 75.5523 103 75V75Z" fill="black" fill-opacity="0.75"/>
<rect x="143" y="74" width="13" height="2" rx="1" fill="black" fill-opacity="0.75"/>
<path d="M88.3536 88.3536C88.5488 88.1583 88.5488 87.8417 88.3536 87.6464L85.1716 84.4645C84.9763 84.2692 84.6597 84.2692 84.4645 84.4645C84.2692 84.6597 84.2692 84.9763 84.4645 85.1716L87.2929 88L84.4645 90.8284C84.2692 91.0237 84.2692 91.3403 84.4645 91.5355C84.6597 91.7308 84.9763 91.7308 85.1716 91.5355L88.3536 88.3536ZM82 88.5H88V87.5H82V88.5Z" fill="black" fill-opacity="0.75"/>
<path d="M75.6464 87.6464C75.4512 87.8417 75.4512 88.1583 75.6464 88.3536L78.8284 91.5355C79.0237 91.7308 79.3403 91.7308 79.5355 91.5355C79.7308 91.3403 79.7308 91.0237 79.5355 90.8284L76.7071 88L79.5355 85.1716C79.7308 84.9763 79.7308 84.6597 79.5355 84.4645C79.3403 84.2692 79.0237 84.2692 78.8284 84.4645L75.6464 87.6464ZM82 87.5L76 87.5L76 88.5L82 88.5L82 87.5Z" fill="black" fill-opacity="0.75"/>
</svg>
