<svg width="228" height="130" viewBox="0 0 228 130" fill="none" xmlns="http://www.w3.org/2000/svg">
<rect x="49" y="13" width="151.989" height="79" fill="#61A5E3"/>
<rect x="35" y="22" width="155.854" height="81.0089" fill="white"/>
<rect x="31" y="26" width="155.854" height="81.0089" fill="white"/>
<rect x="31.5" y="26.5" width="154.854" height="80.0089" stroke="black" stroke-opacity="0.75"/>
<path d="M85.093 85.8761C85.093 93.8048 82.7307 100.963 78.9359 106.127C75.141 111.291 69.9394 114.434 64.2401 114.434C58.5408 114.434 53.3392 111.291 49.5442 106.127C45.7495 100.963 43.3872 93.8048 43.3872 85.8761C43.3872 77.9475 45.7495 70.7894 49.5442 65.6254C53.3392 60.4612 58.5408 57.3186 64.2401 57.3186C69.9394 57.3186 75.141 60.4612 78.9359 65.6254C82.7307 70.7894 85.093 77.9475 85.093 85.8761Z" stroke="#C4C4C4"/>
<circle cx="64.24" cy="51.7554" r="15.6294" fill="white"/>
<circle cx="64.4601" cy="51.5353" r="12.2677" fill="white" stroke="#C4C4C4"/>
<rect x="38" y="93" width="52" height="13" fill="white"/>
<rect x="38" y="107" width="52" height="13" fill="white"/>
<rect x="93.958" y="55.938" width="51.9513" height="9.68584" fill="white"/>
<rect x="97.48" y="56.3782" width="19.8119" height="1.76106" rx="0.880531" fill="#C4C4C4"/>
<rect x="95.6365" y="74.4292" width="23.4992" height="1.3208" rx="0.660398" fill="#C4C4C4"/>
<rect x="95.6365" y="77.0706" width="23.4992" height="1.3208" rx="0.660398" fill="#C4C4C4"/>
<rect x="95.6365" y="82.354" width="23.4992" height="1.3208" rx="0.660398" fill="#C4C4C4"/>
<rect x="95.6365" y="84.9956" width="23.4992" height="1.3208" rx="0.660398" fill="#C4C4C4"/>
<rect x="95.6365" y="79.7122" width="23.4992" height="1.3208" rx="0.660398" fill="#C4C4C4"/>
<path d="M101.941 88.2974C101.941 87.9326 102.237 87.637 102.602 87.637H112.171C112.535 87.637 112.831 87.9326 112.831 88.2974V88.2974C112.831 88.6621 112.535 88.9578 112.171 88.9578H102.602C102.237 88.9578 101.941 88.6621 101.941 88.2974V88.2974Z" fill="#C4C4C4"/>
<rect x="134.903" y="55.4976" width="11.8872" height="1.76106" rx="0.880531" fill="black" fill-opacity="0.75"/>
<rect x="134.903" y="59.46" width="11.8872" height="1.76106" rx="0.880531" fill="black" fill-opacity="0.75"/>
<rect x="134.903" y="75.3096" width="30.8186" height="1.76106" rx="0.880531" fill="black" fill-opacity="0.75"/>
<path d="M148.551 56.3781C148.551 55.8918 148.945 55.4976 149.432 55.4976H172.766C173.252 55.4976 173.646 55.8918 173.646 56.3781V56.3781C173.646 56.8644 173.252 57.2586 172.766 57.2586H149.432C148.945 57.2586 148.551 56.8644 148.551 56.3781V56.3781Z" fill="#C4C4C4"/>
<rect x="148.551" y="59.46" width="25.5354" height="1.76106" rx="0.880531" fill="#C4C4C4"/>
<rect x="134.903" y="63.4226" width="39.1836" height="1.76106" rx="0.880531" fill="#C4C4C4"/>
<rect x="134.903" y="67.385" width="39.1836" height="1.76106" rx="0.880531" fill="#C4C4C4"/>
<rect x="135.343" y="79.272" width="38.7434" height="1.76106" rx="0.880531" fill="#C4C4C4"/>
<rect x="134.903" y="71.3472" width="12.7677" height="1.76106" rx="0.880531" fill="#C4C4C4"/>
<rect x="166.602" y="75.3096" width="7.48451" height="1.76106" rx="0.880531" fill="#C4C4C4"/>
<rect x="93.958" y="48.4536" width="26.8562" height="6.16372" rx="3.08186" fill="black" fill-opacity="0.75"/>
</svg>
