<svg width="153" height="62" viewBox="0 0 153 62" fill="none" xmlns="http://www.w3.org/2000/svg">
<rect x="61" y="8" width="39" height="39" fill="#61A5E3"/>
<rect x="55" y="14" width="39" height="39" fill="white"/>
<rect x="53" y="16" width="39" height="39" fill="white"/>
<rect x="53.5" y="16.5" width="38" height="38" stroke="black" stroke-opacity="0.75"/>
<path d="M69.8457 42.916V41.9668C69.8457 40.5957 70.0566 39.4707 70.4785 38.5918C70.9004 37.7012 71.6855 36.7637 72.834 35.7793C74.4277 34.4316 75.4297 33.418 75.8398 32.7383C76.2617 32.0586 76.4727 31.2383 76.4727 30.2773C76.4727 29.082 76.0859 28.1621 75.3125 27.5176C74.5508 26.8613 73.4492 26.5332 72.0078 26.5332C71.082 26.5332 70.1797 26.6445 69.3008 26.8672C68.4219 27.0781 67.4141 27.4707 66.2773 28.0449L65.2402 25.6719C67.4551 24.5117 69.7695 23.9316 72.1836 23.9316C74.4219 23.9316 76.1621 24.4824 77.4043 25.584C78.6465 26.6855 79.2676 28.2383 79.2676 30.2422C79.2676 31.0977 79.1504 31.8535 78.916 32.5098C78.6934 33.1543 78.3594 33.7695 77.9141 34.3555C77.4688 34.9297 76.5078 35.8613 75.0312 37.1504C73.8477 38.1582 73.0625 38.9961 72.6758 39.6641C72.3008 40.332 72.1133 41.2227 72.1133 42.3359V42.916H69.8457ZM68.9844 48.1367C68.9844 46.543 69.6875 45.7461 71.0938 45.7461C71.7734 45.7461 72.2949 45.9512 72.6582 46.3613C73.0332 46.7715 73.2207 47.3633 73.2207 48.1367C73.2207 48.8867 73.0332 49.4727 72.6582 49.8945C72.2832 50.3047 71.7617 50.5098 71.0938 50.5098C70.4844 50.5098 69.9805 50.3281 69.582 49.9648C69.1836 49.5898 68.9844 48.9805 68.9844 48.1367Z" fill="black"/>
<rect x="69.0352" y="31.0801" width="0.579285" height="13.8235" transform="rotate(-45 69.0352 31.0801)" fill="white"/>
<rect x="69.4448" y="34.2197" width="0.579285" height="13.8235" transform="rotate(-135 69.4448 34.2197)" fill="white"/>
</svg>
