<svg width="482" height="280" viewBox="0 0 482 280" fill="none" xmlns="http://www.w3.org/2000/svg">
<rect x="69" y="29" width="151.989" height="79" fill="#007EC6"/>
<rect x="55" y="39" width="155.854" height="81.0089" fill="white"/>
<path d="M105.093 102.876C105.093 110.805 102.731 117.963 98.9359 123.127C95.141 128.291 89.9394 131.434 84.2401 131.434C78.5408 131.434 73.3392 128.291 69.5442 123.127C65.7495 117.963 63.3872 110.805 63.3872 102.876C63.3872 94.9475 65.7495 87.7894 69.5442 82.6254C73.3392 77.4612 78.5408 74.3186 84.2401 74.3186C89.9394 74.3186 95.141 77.4612 98.9359 82.6254C102.731 87.7894 105.093 94.9475 105.093 102.876Z" stroke="#C4C4C4"/>
<rect x="51.5" y="43.5" width="154.854" height="80.0089" stroke="black" stroke-opacity="0.75"/>
<circle cx="84.24" cy="68.7554" r="15.6294" fill="white"/>
<circle cx="84.4601" cy="68.5353" r="12.2677" fill="white" stroke="#C4C4C4"/>
<rect x="58" y="110" width="52" height="13" fill="white"/>
<rect x="58" y="124" width="52" height="13" fill="white"/>
<rect x="113.958" y="72.938" width="51.9513" height="9.68584" fill="white"/>
<rect x="117.48" y="73.3782" width="19.8119" height="1.76106" rx="0.880531" fill="#C4C4C4"/>
<rect x="115.636" y="91.4292" width="23.4992" height="1.3208" rx="0.660398" fill="#C4C4C4"/>
<rect x="115.636" y="94.0706" width="23.4992" height="1.3208" rx="0.660398" fill="#C4C4C4"/>
<rect x="115.636" y="99.354" width="23.4992" height="1.3208" rx="0.660398" fill="#C4C4C4"/>
<rect x="115.636" y="101.996" width="23.4992" height="1.3208" rx="0.660398" fill="#C4C4C4"/>
<rect x="115.636" y="96.7122" width="23.4992" height="1.3208" rx="0.660398" fill="#C4C4C4"/>
<path d="M121.941 105.297C121.941 104.933 122.237 104.637 122.602 104.637H132.171C132.535 104.637 132.831 104.933 132.831 105.297C132.831 105.662 132.535 105.958 132.171 105.958H122.602C122.237 105.958 121.941 105.662 121.941 105.297Z" fill="#C4C4C4"/>
<rect x="154.903" y="72.4976" width="11.8872" height="1.76106" rx="0.880531" fill="black" fill-opacity="0.75"/>
<rect x="154.903" y="76.46" width="11.8872" height="1.76106" rx="0.880531" fill="black" fill-opacity="0.75"/>
<rect x="154.903" y="92.3096" width="30.8186" height="1.76106" rx="0.880531" fill="black" fill-opacity="0.75"/>
<path d="M168.551 73.3781C168.551 72.8918 168.945 72.4976 169.432 72.4976H192.766C193.252 72.4976 193.646 72.8918 193.646 73.3781C193.646 73.8644 193.252 74.2586 192.766 74.2586H169.432C168.945 74.2586 168.551 73.8644 168.551 73.3781Z" fill="#C4C4C4"/>
<rect x="168.551" y="76.46" width="25.5354" height="1.76106" rx="0.880531" fill="#C4C4C4"/>
<rect x="154.903" y="80.4226" width="39.1836" height="1.76106" rx="0.880531" fill="#C4C4C4"/>
<rect x="154.903" y="84.385" width="39.1836" height="1.76106" rx="0.880531" fill="#C4C4C4"/>
<rect x="155.343" y="96.272" width="38.7434" height="1.76106" rx="0.880531" fill="#C4C4C4"/>
<rect x="154.903" y="88.3472" width="12.7677" height="1.76106" rx="0.880531" fill="#C4C4C4"/>
<rect x="186.602" y="92.3096" width="7.48451" height="1.76106" rx="0.880531" fill="#C4C4C4"/>
<rect x="46" y="157" width="71" height="71" fill="#007EC6"/>
<rect x="36" y="167" width="71" height="71" fill="white"/>
<rect x="32" y="171" width="71" height="71" fill="white"/>
<rect x="32.5" y="171.5" width="70" height="70" stroke="black" stroke-opacity="0.75"/>
<rect x="32" y="201" width="71" height="10" fill="white"/>
<rect x="32.5" y="201.5" width="70" height="9" stroke="black" stroke-opacity="0.75"/>
<line x1="68.5" y1="171" x2="68.5" y2="201" stroke="black" stroke-opacity="0.75"/>
<rect x="154" y="157" width="71" height="71" fill="#007EC6"/>
<rect x="144" y="167" width="71" height="71" fill="white"/>
<rect x="140" y="171" width="71" height="71" fill="white"/>
<rect x="140.5" y="171.5" width="70" height="70" stroke="black" stroke-opacity="0.75"/>
<rect x="140" y="201" width="71" height="10" fill="white"/>
<rect x="140.5" y="201.5" width="70" height="9" stroke="black" stroke-opacity="0.75"/>
<line x1="176.5" y1="171" x2="176.5" y2="201" stroke="black" stroke-opacity="0.75"/>
<line x1="176.5" y1="211" x2="176.5" y2="241" stroke="black" stroke-opacity="0.75"/>
<rect x="51.9146" y="221" width="1.27466" height="14.0213" rx="0.637332" transform="rotate(45 51.9146 221)" fill="#C4C4C4"/>
<rect x="61.9146" y="221" width="1.27466" height="14.0213" rx="0.637332" transform="rotate(45 61.9146 221)" fill="#C4C4C4"/>
<rect x="59.6902" y="218" width="1.27466" height="22.1892" rx="0.637332" transform="rotate(45 59.6902 218)" fill="#C4C4C4"/>
<rect x="79.9146" y="221" width="1.27466" height="14.0213" rx="0.637332" transform="rotate(45 79.9146 221)" fill="#C4C4C4"/>
<rect x="89.9146" y="221" width="1.27466" height="14.0213" rx="0.637332" transform="rotate(45 89.9146 221)" fill="#C4C4C4"/>
<rect x="87.6902" y="218" width="1.27466" height="22.1892" rx="0.637332" transform="rotate(45 87.6902 218)" fill="#C4C4C4"/>
<rect x="156.915" y="221" width="1.27466" height="14.0213" rx="0.637332" transform="rotate(45 156.915 221)" fill="#C4C4C4"/>
<rect x="166.915" y="221" width="1.27466" height="14.0213" rx="0.637332" transform="rotate(45 166.915 221)" fill="#C4C4C4"/>
<rect x="164.69" y="218" width="1.27466" height="22.1892" rx="0.637332" transform="rotate(45 164.69 218)" fill="#C4C4C4"/>
<rect x="192.915" y="181" width="1.27466" height="14.0213" rx="0.637332" transform="rotate(45 192.915 181)" fill="#C4C4C4"/>
<rect x="202.915" y="181" width="1.27466" height="14.0213" rx="0.637332" transform="rotate(45 202.915 181)" fill="#C4C4C4"/>
<rect x="200.69" y="178" width="1.27466" height="22.1892" rx="0.637332" transform="rotate(45 200.69 178)" fill="#C4C4C4"/>
<path d="M56.5 181.5C56.5 184.156 53.7089 186.5 50 186.5C46.2911 186.5 43.5 184.156 43.5 181.5C43.5 178.844 46.2911 176.5 50 176.5C53.7089 176.5 56.5 178.844 56.5 181.5Z" stroke="black" stroke-opacity="0.75"/>
<rect x="40" y="181" width="19" height="7" fill="white"/>
<path d="M57.5 193.5C57.5 196.722 54.2442 199.5 50 199.5C45.7558 199.5 42.5 196.722 42.5 193.5C42.5 190.278 45.7558 187.5 50 187.5C54.2442 187.5 57.5 190.278 57.5 193.5Z" stroke="#C4C4C4"/>
<ellipse cx="50" cy="187.5" rx="6" ry="5.5" fill="white"/>
<path d="M54.5 184.5C54.5 186.661 52.5361 188.5 50 188.5C47.4639 188.5 45.5 186.661 45.5 184.5C45.5 182.339 47.4639 180.5 50 180.5C52.5361 180.5 54.5 182.339 54.5 184.5Z" fill="white" stroke="#C4C4C4"/>
<rect x="40" y="194" width="19" height="7" fill="white"/>
<path d="M84.5 192.5C84.5 194.661 82.5361 196.5 80 196.5C77.4639 196.5 75.5 194.661 75.5 192.5C75.5 190.339 77.4639 188.5 80 188.5C82.5361 188.5 84.5 190.339 84.5 192.5Z" stroke="#C4C4C4"/>
<circle cx="80" cy="187" r="2.5" fill="white" stroke="#C4C4C4"/>
<rect x="74" y="193" width="12" height="5" fill="white"/>
<path d="M96.5 186.5C96.5 188.661 94.5361 190.5 92 190.5C89.4639 190.5 87.5 188.661 87.5 186.5C87.5 184.339 89.4639 182.5 92 182.5C94.5361 182.5 96.5 184.339 96.5 186.5Z" stroke="#C4C4C4"/>
<circle cx="92" cy="181" r="2.5" fill="white" stroke="#C4C4C4"/>
<path d="M86 186.5H98V190.5L92 192L86 190.5V186.5Z" fill="white"/>
<path d="M56 182H57C57.5523 182 58 182.448 58 183V186C58 186.552 57.5523 187 57 187H56V182Z" fill="black" fill-opacity="0.75"/>
<path d="M42 183C42 182.448 42.4477 182 43 182H44V187H43C42.4477 187 42 186.552 42 186V183Z" fill="black" fill-opacity="0.75"/>
<rect x="38" y="205" width="60" height="2" rx="1" fill="black" fill-opacity="0.75"/>
<rect x="147" y="205" width="36" height="2" rx="1" fill="black" fill-opacity="0.75"/>
<rect x="184" y="205" width="13" height="2" rx="1" fill="black" fill-opacity="0.75"/>
<circle cx="166.5" cy="181.5" r="7" stroke="#C4C4C4"/>
<circle cx="156" cy="187" r="12" fill="white"/>
<circle cx="155" cy="188" r="10.5" fill="white"/>
<circle cx="155" cy="188" r="10.5" fill="white"/>
<circle cx="155" cy="188" r="10.5" fill="white"/>
<circle cx="155" cy="188" r="10.5" stroke="#C4C4C4"/>
<rect x="192.5" y="213.5" width="12" height="21" rx="2.5" fill="white" stroke="#C4C4C4"/>
<rect x="187" y="215" width="13" height="22" rx="3" fill="white"/>
<rect x="185" y="216" width="12" height="22" rx="3" fill="white"/>
<rect x="185.5" y="216.5" width="11" height="21" rx="2.5" stroke="black" stroke-opacity="0.75"/>
<path d="M189 217H193V217.5C193 217.776 192.776 218 192.5 218H189.5C189.224 218 189 217.776 189 217.5V217Z" fill="black" fill-opacity="0.75"/>
<circle cx="188.5" cy="234.5" r="0.5" fill="#C4C4C4"/>
<circle cx="193.5" cy="234.5" r="0.5" fill="#C4C4C4"/>
<rect x="188" y="220" width="6" height="1" rx="0.5" fill="#C4C4C4"/>
<rect width="2" height="0.5" rx="0.25" transform="matrix(1 0 0 -1 192 222.5)" fill="#C4C4C4"/>
<rect x="267" y="157" width="181" height="71" fill="#007EC6"/>
<rect x="260" y="167" width="178" height="71" fill="white"/>
<rect x="257" y="171" width="33" height="32" fill="white"/>
<rect x="257.5" y="171.5" width="32" height="31" stroke="black" stroke-opacity="0.75"/>
<rect x="293" y="171" width="33" height="32" fill="white"/>
<rect x="293.5" y="171.5" width="32" height="31" stroke="black" stroke-opacity="0.75"/>
<rect x="329" y="171" width="33" height="32" fill="white"/>
<rect x="329.5" y="171.5" width="32" height="31" stroke="black" stroke-opacity="0.75"/>
<rect x="365" y="171" width="33" height="32" fill="white"/>
<rect x="365.5" y="171.5" width="32" height="31" stroke="black" stroke-opacity="0.75"/>
<rect x="349" y="181" width="29" height="13" fill="white"/>
<path d="M374.354 187.354C374.549 187.158 374.549 186.842 374.354 186.646L371.172 183.464C370.976 183.269 370.66 183.269 370.464 183.464C370.269 183.66 370.269 183.976 370.464 184.172L373.293 187L370.464 189.828C370.269 190.024 370.269 190.34 370.464 190.536C370.66 190.731 370.976 190.731 371.172 190.536L374.354 187.354ZM350 187.5H374V186.5H350V187.5Z" fill="black"/>
<rect x="401" y="171" width="33" height="32" fill="white"/>
<rect x="401.5" y="171.5" width="32" height="31" stroke="black" stroke-opacity="0.75"/>
<rect x="257" y="206" width="33" height="32" fill="white"/>
<rect x="257.5" y="206.5" width="32" height="31" stroke="black" stroke-opacity="0.75"/>
<rect x="293" y="206" width="33" height="32" fill="white"/>
<rect x="293.5" y="206.5" width="32" height="31" stroke="black" stroke-opacity="0.75"/>
<rect x="329" y="206" width="33" height="32" fill="white"/>
<rect x="329.5" y="206.5" width="32" height="31" stroke="black" stroke-opacity="0.75"/>
<rect x="365" y="206" width="33" height="32" fill="white"/>
<rect x="365.5" y="206.5" width="32" height="31" stroke="black" stroke-opacity="0.75"/>
<rect x="401" y="206" width="33" height="32" fill="white"/>
<rect x="401.5" y="206.5" width="32" height="31" stroke="black" stroke-opacity="0.75"/>
<rect x="277" y="181" width="29" height="13" fill="white"/>
<path d="M302.354 187.354C302.549 187.158 302.549 186.842 302.354 186.646L299.172 183.464C298.976 183.269 298.66 183.269 298.464 183.464C298.269 183.66 298.269 183.976 298.464 184.172L301.293 187L298.464 189.828C298.269 190.024 298.269 190.34 298.464 190.536C298.66 190.731 298.976 190.731 299.172 190.536L302.354 187.354ZM278 187.5H302V186.5H278V187.5Z" fill="black" fill-opacity="0.35"/>
<rect x="313" y="181" width="29" height="13" fill="white"/>
<path d="M338.354 187.354C338.549 187.158 338.549 186.842 338.354 186.646L335.172 183.464C334.976 183.269 334.66 183.269 334.464 183.464C334.269 183.66 334.269 183.976 334.464 184.172L337.293 187L334.464 189.828C334.269 190.024 334.269 190.34 334.464 190.536C334.66 190.731 334.976 190.731 335.172 190.536L338.354 187.354ZM314 187.5H338V186.5H314V187.5Z" fill="black" fill-opacity="0.35"/>
<rect x="349" y="181" width="29" height="13" fill="white"/>
<path d="M374.354 187.354C374.549 187.158 374.549 186.842 374.354 186.646L371.172 183.464C370.976 183.269 370.66 183.269 370.464 183.464C370.269 183.66 370.269 183.976 370.464 184.172L373.293 187L370.464 189.828C370.269 190.024 370.269 190.34 370.464 190.536C370.66 190.731 370.976 190.731 371.172 190.536L374.354 187.354ZM350 187.5H374V186.5H350V187.5Z" fill="black" fill-opacity="0.35"/>
<rect x="385" y="181" width="29" height="13" fill="white"/>
<path d="M410.354 187.354C410.549 187.158 410.549 186.842 410.354 186.646L407.172 183.464C406.976 183.269 406.66 183.269 406.464 183.464C406.269 183.66 406.269 183.976 406.464 184.172L409.293 187L406.464 189.828C406.269 190.024 406.269 190.34 406.464 190.536C406.66 190.731 406.976 190.731 407.172 190.536L410.354 187.354ZM386 187.5H410V186.5H386V187.5Z" fill="black" fill-opacity="0.35"/>
<rect x="277" y="216" width="29" height="13" fill="white"/>
<path d="M302.354 222.354C302.549 222.158 302.549 221.842 302.354 221.646L299.172 218.464C298.976 218.269 298.66 218.269 298.464 218.464C298.269 218.66 298.269 218.976 298.464 219.172L301.293 222L298.464 224.828C298.269 225.024 298.269 225.34 298.464 225.536C298.66 225.731 298.976 225.731 299.172 225.536L302.354 222.354ZM278 222.5H302V221.5H278V222.5Z" fill="black" fill-opacity="0.35"/>
<rect x="256" y="217" width="12" height="13" fill="white"/>
<path d="M266.698 223.354C266.894 223.158 266.894 222.842 266.698 222.646L263.516 219.464C263.321 219.269 263.005 219.269 262.809 219.464C262.614 219.66 262.614 219.976 262.809 220.172L265.638 223L262.809 225.828C262.614 226.024 262.614 226.34 262.809 226.536C263.005 226.731 263.321 226.731 263.516 226.536L266.698 223.354ZM256.414 223.5H266.345V222.5H256.414V223.5Z" fill="black"/>
<rect x="313" y="216" width="29" height="13" fill="white"/>
<path d="M338.354 222.354C338.549 222.158 338.549 221.842 338.354 221.646L335.172 218.464C334.976 218.269 334.66 218.269 334.464 218.464C334.269 218.66 334.269 218.976 334.464 219.172L337.293 222L334.464 224.828C334.269 225.024 334.269 225.34 334.464 225.536C334.66 225.731 334.976 225.731 335.172 225.536L338.354 222.354ZM314 222.5H338V221.5H314V222.5Z" fill="black" fill-opacity="0.35"/>
<rect x="349" y="216" width="29" height="13" fill="white"/>
<path d="M374.354 222.354C374.549 222.158 374.549 221.842 374.354 221.646L371.172 218.464C370.976 218.269 370.66 218.269 370.464 218.464C370.269 218.66 370.269 218.976 370.464 219.172L373.293 222L370.464 224.828C370.269 225.024 370.269 225.34 370.464 225.536C370.66 225.731 370.976 225.731 371.172 225.536L374.354 222.354ZM350 222.5H374V221.5H350V222.5Z" fill="black" fill-opacity="0.35"/>
<rect x="385" y="216" width="29" height="13" fill="white"/>
<path d="M410.354 222.354C410.549 222.158 410.549 221.842 410.354 221.646L407.172 218.464C406.976 218.269 406.66 218.269 406.464 218.464C406.269 218.66 406.269 218.976 406.464 219.172L409.293 222L406.464 224.828C406.269 225.024 406.269 225.34 406.464 225.536C406.66 225.731 406.976 225.731 407.172 225.536L410.354 222.354ZM386 222.5H410V221.5H386V222.5Z" fill="black"/>
<rect x="423" y="181" width="12" height="13" fill="white"/>
<path d="M433.698 187.354C433.893 187.158 433.893 186.842 433.698 186.646L430.516 183.464C430.321 183.269 430.004 183.269 429.809 183.464C429.614 183.66 429.614 183.976 429.809 184.172L432.638 187L429.809 189.828C429.614 190.024 429.614 190.34 429.809 190.536C430.004 190.731 430.321 190.731 430.516 190.536L433.698 187.354ZM423.414 187.5H433.345V186.5H423.414V187.5Z" fill="black"/>
<rect x="385" y="216" width="29" height="13" fill="white"/>
<path d="M410.354 222.354C410.549 222.158 410.549 221.842 410.354 221.646L407.172 218.464C406.976 218.269 406.66 218.269 406.464 218.464C406.269 218.66 406.269 218.976 406.464 219.172L409.293 222L406.464 224.828C406.269 225.024 406.269 225.34 406.464 225.536C406.66 225.731 406.976 225.731 407.172 225.536L410.354 222.354ZM386 222.5H410V221.5H386V222.5Z" fill="black" fill-opacity="0.35"/>
<rect x="274" y="30" width="149" height="83" fill="#007EC6"/>
<rect x="266" y="40" width="99" height="13" fill="white"/>
<path d="M263 40H413V134H263V40Z" fill="white"/>
<rect x="259" y="44" width="150" height="83" fill="white"/>
<rect x="259.5" y="44.5" width="149" height="82" stroke="black" stroke-opacity="0.75"/>
<rect x="309" y="44" width="49" height="8" fill="white"/>
<rect x="311" y="44" width="45" height="8" fill="white"/>
<rect x="311.5" y="44.5" width="44" height="7" stroke="black" stroke-opacity="0.75"/>
<rect x="269" y="59" width="29" height="2" rx="1" fill="black" fill-opacity="0.75"/>
<rect x="304" y="59" width="28" height="2" rx="1" fill="black" fill-opacity="0.75"/>
<rect x="338" y="59" width="28" height="2" rx="1" fill="black" fill-opacity="0.75"/>
<rect x="372" y="59" width="29" height="2" rx="1" fill="black" fill-opacity="0.75"/>
<rect x="272" y="65" width="22" height="1" rx="0.5" fill="#C4C4C4"/>
<rect x="276" y="68" width="14" height="1" rx="0.5" fill="#C4C4C4"/>
<rect x="272" y="71" width="22" height="1" rx="0.5" fill="#C4C4C4"/>
<rect x="307" y="65" width="22" height="1" rx="0.5" fill="#C4C4C4"/>
<rect x="311" y="68" width="14" height="1" rx="0.5" fill="#C4C4C4"/>
<rect x="307" y="71" width="22" height="1" rx="0.5" fill="#C4C4C4"/>
<rect x="345" y="65" width="14" height="1" rx="0.5" fill="#C4C4C4"/>
<rect x="341" y="68" width="22" height="1" rx="0.5" fill="#C4C4C4"/>
<rect x="377" y="65" width="20" height="1" rx="0.5" fill="#C4C4C4"/>
<rect x="377" y="68" width="20" height="1" rx="0.5" fill="#C4C4C4"/>
<rect x="377" y="71" width="20" height="1" rx="0.5" fill="#C4C4C4"/>
<rect x="374" y="74" width="26" height="1" rx="0.5" fill="#C4C4C4"/>
<circle cx="283" cy="106" r="15" fill="white"/>
<circle cx="283" cy="106" r="14.5" stroke="black" stroke-opacity="0.75"/>
<rect x="317" y="89" width="83" height="34" rx="6" fill="white"/>
<rect x="317.5" y="89.5" width="82" height="33" rx="5.5" stroke="black" stroke-opacity="0.75"/>
<circle cx="334" cy="105" r="15" fill="white"/>
<circle cx="334" cy="105" r="14.5" stroke="black" stroke-opacity="0.75"/>
<rect x="272" y="87" width="22" height="11" fill="white"/>
<rect x="274" y="88" width="18" height="9" fill="white"/>
<rect x="274.5" y="88.5" width="17" height="8" stroke="black" stroke-opacity="0.75"/>
<rect x="323" y="87" width="22" height="10" fill="white"/>
<rect x="325" y="88" width="18" height="8" fill="white"/>
<rect x="325.5" y="88.5" width="17" height="7" stroke="black" stroke-opacity="0.75"/>
<rect x="354" y="87" width="42" height="12" fill="white"/>
<rect x="356" y="88" width="38" height="10" fill="white"/>
<rect x="356.5" y="88.5" width="37" height="9" stroke="black" stroke-opacity="0.75"/>
<rect x="278" y="91" width="10" height="1" rx="0.5" fill="black" fill-opacity="0.75"/>
<rect x="278" y="93" width="10" height="1" rx="0.5" fill="black" fill-opacity="0.75"/>
<path d="M276 101.5C276 101.224 276.224 101 276.5 101H289.5C289.776 101 290 101.224 290 101.5C290 101.776 289.776 102 289.5 102H276.5C276.224 102 276 101.776 276 101.5Z" fill="#C4C4C4"/>
<rect x="276" y="107" width="14" height="1" rx="0.5" fill="#C4C4C4"/>
<rect x="276" y="110" width="14" height="1" rx="0.5" fill="#C4C4C4"/>
<rect x="276" y="104" width="14" height="1" rx="0.5" fill="#C4C4C4"/>
<rect x="329" y="99" width="10" height="1" rx="0.5" fill="#C4C4C4"/>
<rect x="330" y="114" width="8" height="1" rx="0.5" fill="#C4C4C4"/>
<rect x="330" y="114" width="8" height="1" rx="0.5" fill="#C4C4C4"/>
<rect x="330" y="114" width="8" height="1" rx="0.5" fill="#C4C4C4"/>
<rect x="327" y="103" width="14" height="1" rx="0.5" fill="#C4C4C4"/>
<rect x="327" y="103" width="14" height="1" rx="0.5" fill="#C4C4C4"/>
<rect x="327" y="103" width="14" height="1" rx="0.5" fill="#C4C4C4"/>
<rect x="327" y="101" width="14" height="1" rx="0.5" fill="#C4C4C4"/>
<rect x="327" y="101" width="14" height="1" rx="0.5" fill="#C4C4C4"/>
<rect x="327" y="101" width="14" height="1" rx="0.5" fill="#C4C4C4"/>
<rect x="325" y="112" width="18" height="1" rx="0.5" fill="#C4C4C4"/>
<rect x="325" y="112" width="18" height="1" rx="0.5" fill="#C4C4C4"/>
<rect x="325" y="112" width="18" height="1" rx="0.5" fill="#C4C4C4"/>
<path d="M359 106.5C359 106.224 359.224 106 359.5 106H388.5C388.776 106 389 106.224 389 106.5C389 106.776 388.776 107 388.5 107H359.5C359.224 107 359 106.776 359 106.5Z" fill="#C4C4C4"/>
<path d="M359 106.5C359 106.224 359.224 106 359.5 106H388.5C388.776 106 389 106.224 389 106.5C389 106.776 388.776 107 388.5 107H359.5C359.224 107 359 106.776 359 106.5Z" fill="#C4C4C4"/>
<path d="M359 106.5C359 106.224 359.224 106 359.5 106H388.5C388.776 106 389 106.224 389 106.5C389 106.776 388.776 107 388.5 107H359.5C359.224 107 359 106.776 359 106.5Z" fill="#C4C4C4"/>
<rect x="327" y="105" width="14" height="1" rx="0.5" fill="#C4C4C4"/>
<rect x="357" y="104" width="36" height="1" rx="0.5" fill="#C4C4C4"/>
<rect x="357" y="112" width="36" height="1" rx="0.5" fill="#C4C4C4"/>
<path d="M363 114.5C363 114.224 363.224 114 363.5 114H386.5C386.776 114 387 114.224 387 114.5C387 114.776 386.776 115 386.5 115H363.5C363.224 115 363 114.776 363 114.5Z" fill="#C4C4C4"/>
<rect x="329" y="110" width="10" height="1" rx="0.5" fill="#C4C4C4"/>
<rect x="365" y="94" width="20" height="1" rx="0.5" fill="black" fill-opacity="0.75"/>
<path d="M328 92C328 91.4477 328.448 91 329 91H339C339.552 91 340 91.4477 340 92C340 92.5523 339.552 93 339 93H329C328.448 93 328 92.5523 328 92Z" fill="black" fill-opacity="0.75"/>
<path d="M321 48C321 47.4477 321.448 47 322 47H344C344.552 47 345 47.4477 345 48C345 48.5523 344.552 49 344 49H322C321.448 49 321 48.5523 321 48Z" fill="black" fill-opacity="0.75"/>
<rect x="368" y="91" width="13" height="2" rx="1" fill="black" fill-opacity="0.75"/>
<path d="M313.354 105.354C313.549 105.158 313.549 104.842 313.354 104.646L310.172 101.464C309.976 101.269 309.66 101.269 309.464 101.464C309.269 101.66 309.269 101.976 309.464 102.172L312.293 105L309.464 107.828C309.269 108.024 309.269 108.34 309.464 108.536C309.66 108.731 309.976 108.731 310.172 108.536L313.354 105.354ZM307 105.5H313V104.5H307V105.5Z" fill="black" fill-opacity="0.75"/>
<path d="M300.646 104.646C300.451 104.842 300.451 105.158 300.646 105.354L303.828 108.536C304.024 108.731 304.34 108.731 304.536 108.536C304.731 108.34 304.731 108.024 304.536 107.828L301.707 105L304.536 102.172C304.731 101.976 304.731 101.66 304.536 101.464C304.34 101.269 304.024 101.269 303.828 101.464L300.646 104.646ZM307 104.5L301 104.5L301 105.5L307 105.5L307 104.5Z" fill="black" fill-opacity="0.75"/>
<rect x="114" y="67" width="26" height="4" rx="2" fill="black" fill-opacity="0.75"/>
</svg>
